<mxfile host="app.diagrams.net" modified="2020-07-23T13:58:29.592Z" agent="5.0 (Windows NT 10.0; Win64; x64) AppleWebKit/537.36 (KHTML, like Gecko) Chrome/84.0.4147.89 Safari/537.36" etag="VSdnSWaYXL5C4jDhaKaP" version="13.0.9" type="github">
  <diagram id="71mHIhHhVNztUEy4peck" name="Page-1">
    <mxGraphModel dx="1422" dy="1813" grid="1" gridSize="10" guides="1" tooltips="1" connect="1" arrows="1" fold="1" page="1" pageScale="1" pageWidth="850" pageHeight="1100" math="0" shadow="0">
      <root>
        <mxCell id="0" />
        <mxCell id="1" parent="0" />
        <mxCell id="fkppCWhbOw76qJjiSwTg-1" value="" style="whiteSpace=wrap;html=1;fillColor=#00FFFF;" parent="1" vertex="1">
          <mxGeometry x="270" y="-80" width="490" height="730" as="geometry" />
        </mxCell>
        <mxCell id="fkppCWhbOw76qJjiSwTg-121" style="edgeStyle=orthogonalEdgeStyle;rounded=0;orthogonalLoop=1;jettySize=auto;html=1;exitX=0.75;exitY=0;exitDx=0;exitDy=0;entryX=1;entryY=0.5;entryDx=0;entryDy=0;entryPerimeter=0;endArrow=none;endFill=0;strokeWidth=1;" parent="1" source="fkppCWhbOw76qJjiSwTg-113" target="fkppCWhbOw76qJjiSwTg-117" edge="1">
          <mxGeometry relative="1" as="geometry" />
        </mxCell>
        <mxCell id="fkppCWhbOw76qJjiSwTg-126" style="edgeStyle=orthogonalEdgeStyle;rounded=0;orthogonalLoop=1;jettySize=auto;html=1;exitX=0.25;exitY=1;exitDx=0;exitDy=0;entryX=0;entryY=0.5;entryDx=0;entryDy=0;entryPerimeter=0;endArrow=none;endFill=0;strokeWidth=1;" parent="1" source="fkppCWhbOw76qJjiSwTg-113" target="fkppCWhbOw76qJjiSwTg-125" edge="1">
          <mxGeometry relative="1" as="geometry" />
        </mxCell>
        <mxCell id="VlwEZn-e34Lsyked_DZE-5" style="edgeStyle=orthogonalEdgeStyle;rounded=0;orthogonalLoop=1;jettySize=auto;html=1;exitX=0.5;exitY=0;exitDx=0;exitDy=0;entryX=1;entryY=0.5;entryDx=0;entryDy=0;entryPerimeter=0;endArrow=none;endFill=0;" parent="1" source="fkppCWhbOw76qJjiSwTg-113" target="VlwEZn-e34Lsyked_DZE-3" edge="1">
          <mxGeometry relative="1" as="geometry" />
        </mxCell>
        <mxCell id="fkppCWhbOw76qJjiSwTg-82" value="" style="rounded=0;whiteSpace=wrap;html=1;fillColor=#00FFFF;" parent="1" vertex="1">
          <mxGeometry x="880" y="50" width="330" height="490" as="geometry" />
        </mxCell>
        <mxCell id="fkppCWhbOw76qJjiSwTg-9" value="" style="ellipse;whiteSpace=wrap;html=1;aspect=fixed;fillColor=#08D6FF;" parent="1" vertex="1">
          <mxGeometry x="140" y="165" width="20" height="20" as="geometry" />
        </mxCell>
        <mxCell id="fkppCWhbOw76qJjiSwTg-11" value="User" style="text;html=1;strokeColor=none;fillColor=none;align=center;verticalAlign=middle;whiteSpace=wrap;rounded=0;fontStyle=1" parent="1" vertex="1">
          <mxGeometry x="130" y="190" width="40" height="20" as="geometry" />
        </mxCell>
        <mxCell id="fkppCWhbOw76qJjiSwTg-115" style="edgeStyle=orthogonalEdgeStyle;rounded=0;orthogonalLoop=1;jettySize=auto;html=1;exitX=0;exitY=0.5;exitDx=0;exitDy=0;exitPerimeter=0;endArrow=none;endFill=0;strokeWidth=1;entryX=0;entryY=0.5;entryDx=0;entryDy=0;" parent="1" source="fkppCWhbOw76qJjiSwTg-13" target="fkppCWhbOw76qJjiSwTg-33" edge="1">
          <mxGeometry relative="1" as="geometry">
            <Array as="points" />
          </mxGeometry>
        </mxCell>
        <mxCell id="fkppCWhbOw76qJjiSwTg-13" value="" style="shape=providedRequiredInterface;html=1;verticalLabelPosition=bottom;fillColor=#08D6FF;rotation=-180;" parent="1" vertex="1">
          <mxGeometry x="290" y="160" width="30" height="30" as="geometry" />
        </mxCell>
        <mxCell id="fkppCWhbOw76qJjiSwTg-2" value="&amp;lt;&amp;lt;Subsystem&amp;gt;&amp;gt;&lt;br&gt;Android Application" style="text;html=1;strokeColor=none;fillColor=none;align=center;verticalAlign=middle;whiteSpace=wrap;rounded=0;" parent="1" vertex="1">
          <mxGeometry x="438" y="-60" width="154" height="20" as="geometry" />
        </mxCell>
        <mxCell id="fkppCWhbOw76qJjiSwTg-3" value="" style="shape=module;align=left;spacingLeft=20;align=center;verticalAlign=top;jettyWidth=8;jettyHeight=4;fillColor=#08D6FF;" parent="1" vertex="1">
          <mxGeometry x="728" y="-70" width="22" height="20" as="geometry" />
        </mxCell>
        <mxCell id="fkppCWhbOw76qJjiSwTg-26" value="" style="whiteSpace=wrap;html=1;aspect=fixed;fillColor=#08D6FF;" parent="1" vertex="1">
          <mxGeometry x="260" y="165" width="20" height="20" as="geometry" />
        </mxCell>
        <mxCell id="fkppCWhbOw76qJjiSwTg-27" value="" style="endArrow=none;html=1;strokeWidth=1;exitX=1;exitY=0.5;exitDx=0;exitDy=0;entryX=0;entryY=0.5;entryDx=0;entryDy=0;" parent="1" source="fkppCWhbOw76qJjiSwTg-9" target="fkppCWhbOw76qJjiSwTg-26" edge="1">
          <mxGeometry width="50" height="50" relative="1" as="geometry">
            <mxPoint x="350" y="230" as="sourcePoint" />
            <mxPoint x="400" y="180" as="targetPoint" />
          </mxGeometry>
        </mxCell>
        <mxCell id="fkppCWhbOw76qJjiSwTg-28" value="" style="endArrow=none;html=1;strokeWidth=1;exitX=1;exitY=0.5;exitDx=0;exitDy=0;entryX=1;entryY=0.5;entryDx=0;entryDy=0;entryPerimeter=0;" parent="1" source="fkppCWhbOw76qJjiSwTg-26" target="fkppCWhbOw76qJjiSwTg-13" edge="1">
          <mxGeometry width="50" height="50" relative="1" as="geometry">
            <mxPoint x="350" y="230" as="sourcePoint" />
            <mxPoint x="240" y="130" as="targetPoint" />
          </mxGeometry>
        </mxCell>
        <mxCell id="fkppCWhbOw76qJjiSwTg-29" value="User" style="text;html=1;strokeColor=none;fillColor=none;align=center;verticalAlign=middle;whiteSpace=wrap;rounded=0;fontStyle=1" parent="1" vertex="1">
          <mxGeometry x="285" y="190" width="40" height="20" as="geometry" />
        </mxCell>
        <mxCell id="fkppCWhbOw76qJjiSwTg-73" style="edgeStyle=orthogonalEdgeStyle;rounded=0;orthogonalLoop=1;jettySize=auto;html=1;exitX=1;exitY=0.5;exitDx=0;exitDy=0;entryX=0;entryY=0.5;entryDx=0;entryDy=0;entryPerimeter=0;endArrow=none;endFill=0;strokeWidth=1;" parent="1" source="fkppCWhbOw76qJjiSwTg-32" target="fkppCWhbOw76qJjiSwTg-64" edge="1">
          <mxGeometry relative="1" as="geometry" />
        </mxCell>
        <mxCell id="fkppCWhbOw76qJjiSwTg-74" style="edgeStyle=orthogonalEdgeStyle;rounded=0;orthogonalLoop=1;jettySize=auto;html=1;exitX=0.75;exitY=1;exitDx=0;exitDy=0;entryX=0;entryY=0.5;entryDx=0;entryDy=0;entryPerimeter=0;endArrow=none;endFill=0;strokeWidth=1;" parent="1" source="fkppCWhbOw76qJjiSwTg-32" target="fkppCWhbOw76qJjiSwTg-66" edge="1">
          <mxGeometry relative="1" as="geometry" />
        </mxCell>
        <mxCell id="fkppCWhbOw76qJjiSwTg-75" style="edgeStyle=orthogonalEdgeStyle;rounded=0;orthogonalLoop=1;jettySize=auto;html=1;exitX=0.5;exitY=1;exitDx=0;exitDy=0;entryX=0;entryY=0.5;entryDx=0;entryDy=0;entryPerimeter=0;endArrow=none;endFill=0;strokeWidth=1;" parent="1" source="fkppCWhbOw76qJjiSwTg-32" target="fkppCWhbOw76qJjiSwTg-68" edge="1">
          <mxGeometry relative="1" as="geometry" />
        </mxCell>
        <mxCell id="fkppCWhbOw76qJjiSwTg-98" style="edgeStyle=orthogonalEdgeStyle;rounded=0;orthogonalLoop=1;jettySize=auto;html=1;exitX=0.25;exitY=1;exitDx=0;exitDy=0;entryX=1;entryY=0.5;entryDx=0;entryDy=0;entryPerimeter=0;endArrow=none;endFill=0;strokeWidth=1;" parent="1" source="fkppCWhbOw76qJjiSwTg-32" target="fkppCWhbOw76qJjiSwTg-97" edge="1">
          <mxGeometry relative="1" as="geometry">
            <Array as="points">
              <mxPoint x="530" y="235" />
            </Array>
          </mxGeometry>
        </mxCell>
        <mxCell id="QcgEAhnMN4TtuXN9khBl-2" style="edgeStyle=orthogonalEdgeStyle;rounded=0;orthogonalLoop=1;jettySize=auto;html=1;exitX=0.75;exitY=0;exitDx=0;exitDy=0;entryX=1;entryY=0.5;entryDx=0;entryDy=0;entryPerimeter=0;endArrow=none;endFill=0;" parent="1" source="fkppCWhbOw76qJjiSwTg-32" target="QcgEAhnMN4TtuXN9khBl-1" edge="1">
          <mxGeometry relative="1" as="geometry" />
        </mxCell>
        <mxCell id="fkppCWhbOw76qJjiSwTg-33" value="" style="whiteSpace=wrap;html=1;aspect=fixed;fillColor=#08D6FF;" parent="1" vertex="1">
          <mxGeometry x="350" y="250" width="20" height="20" as="geometry" />
        </mxCell>
        <mxCell id="fkppCWhbOw76qJjiSwTg-144" style="edgeStyle=orthogonalEdgeStyle;rounded=0;orthogonalLoop=1;jettySize=auto;html=1;exitX=1;exitY=0.5;exitDx=0;exitDy=0;entryX=0.5;entryY=0;entryDx=0;entryDy=0;endArrow=none;endFill=0;strokeWidth=1;" parent="1" source="fkppCWhbOw76qJjiSwTg-87" target="fkppCWhbOw76qJjiSwTg-140" edge="1">
          <mxGeometry relative="1" as="geometry">
            <mxPoint x="1030" y="175" as="sourcePoint" />
          </mxGeometry>
        </mxCell>
        <mxCell id="fkppCWhbOw76qJjiSwTg-143" style="edgeStyle=orthogonalEdgeStyle;rounded=0;orthogonalLoop=1;jettySize=auto;html=1;exitX=1;exitY=0.5;exitDx=0;exitDy=0;entryX=0;entryY=0.5;entryDx=0;entryDy=0;endArrow=none;endFill=0;strokeWidth=1;" parent="1" source="fkppCWhbOw76qJjiSwTg-86" target="fkppCWhbOw76qJjiSwTg-140" edge="1">
          <mxGeometry relative="1" as="geometry">
            <mxPoint x="1030" y="265" as="sourcePoint" />
          </mxGeometry>
        </mxCell>
        <mxCell id="fkppCWhbOw76qJjiSwTg-89" style="edgeStyle=orthogonalEdgeStyle;rounded=0;orthogonalLoop=1;jettySize=auto;html=1;exitX=1;exitY=0.5;exitDx=0;exitDy=0;entryX=0;entryY=0.5;entryDx=0;entryDy=0;endArrow=none;endFill=0;strokeWidth=1;" parent="1" source="fkppCWhbOw76qJjiSwTg-51" target="fkppCWhbOw76qJjiSwTg-87" edge="1">
          <mxGeometry relative="1" as="geometry" />
        </mxCell>
        <mxCell id="fkppCWhbOw76qJjiSwTg-51" value="" style="whiteSpace=wrap;html=1;aspect=fixed;fillColor=#08D6FF;" parent="1" vertex="1">
          <mxGeometry x="750" y="165" width="20" height="20" as="geometry" />
        </mxCell>
        <mxCell id="fkppCWhbOw76qJjiSwTg-90" style="edgeStyle=orthogonalEdgeStyle;rounded=0;orthogonalLoop=1;jettySize=auto;html=1;exitX=1;exitY=0.5;exitDx=0;exitDy=0;entryX=0;entryY=0.5;entryDx=0;entryDy=0;endArrow=none;endFill=0;strokeWidth=1;" parent="1" source="fkppCWhbOw76qJjiSwTg-53" target="fkppCWhbOw76qJjiSwTg-86" edge="1">
          <mxGeometry relative="1" as="geometry" />
        </mxCell>
        <mxCell id="fkppCWhbOw76qJjiSwTg-53" value="" style="whiteSpace=wrap;html=1;aspect=fixed;fillColor=#08D6FF;" parent="1" vertex="1">
          <mxGeometry x="750" y="255" width="20" height="20" as="geometry" />
        </mxCell>
        <mxCell id="fkppCWhbOw76qJjiSwTg-91" style="edgeStyle=orthogonalEdgeStyle;rounded=0;orthogonalLoop=1;jettySize=auto;html=1;exitX=1;exitY=0.5;exitDx=0;exitDy=0;entryX=0;entryY=0.5;entryDx=0;entryDy=0;endArrow=none;endFill=0;strokeWidth=1;" parent="1" source="fkppCWhbOw76qJjiSwTg-56" target="fkppCWhbOw76qJjiSwTg-85" edge="1">
          <mxGeometry relative="1" as="geometry" />
        </mxCell>
        <mxCell id="fkppCWhbOw76qJjiSwTg-56" value="" style="whiteSpace=wrap;html=1;aspect=fixed;fillColor=#08D6FF;" parent="1" vertex="1">
          <mxGeometry x="750" y="345" width="20" height="20" as="geometry" />
        </mxCell>
        <mxCell id="fkppCWhbOw76qJjiSwTg-70" style="edgeStyle=orthogonalEdgeStyle;rounded=0;orthogonalLoop=1;jettySize=auto;html=1;exitX=1;exitY=0.5;exitDx=0;exitDy=0;exitPerimeter=0;entryX=0;entryY=0.5;entryDx=0;entryDy=0;endArrow=none;endFill=0;strokeWidth=1;" parent="1" source="fkppCWhbOw76qJjiSwTg-64" target="fkppCWhbOw76qJjiSwTg-51" edge="1">
          <mxGeometry relative="1" as="geometry" />
        </mxCell>
        <mxCell id="fkppCWhbOw76qJjiSwTg-64" value="" style="shape=providedRequiredInterface;html=1;verticalLabelPosition=bottom;fillColor=#08D6FF;" parent="1" vertex="1">
          <mxGeometry x="680" y="160" width="30" height="30" as="geometry" />
        </mxCell>
        <mxCell id="fkppCWhbOw76qJjiSwTg-65" value="Comm" style="text;html=1;strokeColor=none;fillColor=none;align=center;verticalAlign=middle;whiteSpace=wrap;rounded=0;fontStyle=1" parent="1" vertex="1">
          <mxGeometry x="675" y="200" width="40" height="20" as="geometry" />
        </mxCell>
        <mxCell id="fkppCWhbOw76qJjiSwTg-71" style="edgeStyle=orthogonalEdgeStyle;rounded=0;orthogonalLoop=1;jettySize=auto;html=1;exitX=1;exitY=0.5;exitDx=0;exitDy=0;exitPerimeter=0;entryX=0;entryY=0.5;entryDx=0;entryDy=0;endArrow=none;endFill=0;strokeWidth=1;" parent="1" source="fkppCWhbOw76qJjiSwTg-66" target="fkppCWhbOw76qJjiSwTg-53" edge="1">
          <mxGeometry relative="1" as="geometry" />
        </mxCell>
        <mxCell id="fkppCWhbOw76qJjiSwTg-66" value="" style="shape=providedRequiredInterface;html=1;verticalLabelPosition=bottom;fillColor=#08D6FF;" parent="1" vertex="1">
          <mxGeometry x="680" y="250" width="30" height="30" as="geometry" />
        </mxCell>
        <mxCell id="fkppCWhbOw76qJjiSwTg-67" value="Comm" style="text;html=1;strokeColor=none;fillColor=none;align=center;verticalAlign=middle;whiteSpace=wrap;rounded=0;fontStyle=1" parent="1" vertex="1">
          <mxGeometry x="675" y="290" width="40" height="20" as="geometry" />
        </mxCell>
        <mxCell id="fkppCWhbOw76qJjiSwTg-72" style="edgeStyle=orthogonalEdgeStyle;rounded=0;orthogonalLoop=1;jettySize=auto;html=1;exitX=1;exitY=0.5;exitDx=0;exitDy=0;exitPerimeter=0;entryX=0;entryY=0.5;entryDx=0;entryDy=0;endArrow=none;endFill=0;strokeWidth=1;" parent="1" source="fkppCWhbOw76qJjiSwTg-68" target="fkppCWhbOw76qJjiSwTg-56" edge="1">
          <mxGeometry relative="1" as="geometry" />
        </mxCell>
        <mxCell id="fkppCWhbOw76qJjiSwTg-68" value="" style="shape=providedRequiredInterface;html=1;verticalLabelPosition=bottom;fillColor=#08D6FF;" parent="1" vertex="1">
          <mxGeometry x="680" y="340" width="30" height="30" as="geometry" />
        </mxCell>
        <mxCell id="fkppCWhbOw76qJjiSwTg-69" value="Comm" style="text;html=1;strokeColor=none;fillColor=none;align=center;verticalAlign=middle;whiteSpace=wrap;rounded=0;fontStyle=1" parent="1" vertex="1">
          <mxGeometry x="675" y="380" width="40" height="20" as="geometry" />
        </mxCell>
        <mxCell id="fkppCWhbOw76qJjiSwTg-83" value="&amp;lt;&amp;lt;Subsystem&amp;gt;&amp;gt;&lt;br&gt;Firebase" style="text;html=1;strokeColor=none;fillColor=none;align=center;verticalAlign=middle;whiteSpace=wrap;rounded=0;" parent="1" vertex="1">
          <mxGeometry x="1025" y="60" width="40" height="20" as="geometry" />
        </mxCell>
        <mxCell id="fkppCWhbOw76qJjiSwTg-84" value="" style="shape=module;align=left;spacingLeft=20;align=center;verticalAlign=top;jettyWidth=8;jettyHeight=4;fillColor=#08D6FF;" parent="1" vertex="1">
          <mxGeometry x="1180" y="60" width="22" height="20" as="geometry" />
        </mxCell>
        <mxCell id="fkppCWhbOw76qJjiSwTg-94" style="edgeStyle=orthogonalEdgeStyle;rounded=0;orthogonalLoop=1;jettySize=auto;html=1;exitX=1;exitY=0.5;exitDx=0;exitDy=0;entryX=0.5;entryY=1;entryDx=0;entryDy=0;endArrow=none;endFill=0;strokeWidth=1;" parent="1" source="fkppCWhbOw76qJjiSwTg-85" target="fkppCWhbOw76qJjiSwTg-140" edge="1">
          <mxGeometry relative="1" as="geometry">
            <mxPoint x="910" y="355" as="targetPoint" />
            <Array as="points">
              <mxPoint x="910" y="355" />
              <mxPoint x="910" y="310" />
              <mxPoint x="1118" y="310" />
            </Array>
          </mxGeometry>
        </mxCell>
        <mxCell id="fkppCWhbOw76qJjiSwTg-85" value="" style="whiteSpace=wrap;html=1;aspect=fixed;fillColor=#08D6FF;" parent="1" vertex="1">
          <mxGeometry x="870" y="345" width="20" height="20" as="geometry" />
        </mxCell>
        <mxCell id="fkppCWhbOw76qJjiSwTg-86" value="" style="whiteSpace=wrap;html=1;aspect=fixed;fillColor=#08D6FF;" parent="1" vertex="1">
          <mxGeometry x="870" y="255" width="20" height="20" as="geometry" />
        </mxCell>
        <mxCell id="fkppCWhbOw76qJjiSwTg-87" value="" style="whiteSpace=wrap;html=1;aspect=fixed;fillColor=#08D6FF;" parent="1" vertex="1">
          <mxGeometry x="870" y="165" width="20" height="20" as="geometry" />
        </mxCell>
        <mxCell id="fkppCWhbOw76qJjiSwTg-104" style="edgeStyle=orthogonalEdgeStyle;rounded=0;orthogonalLoop=1;jettySize=auto;html=1;exitX=1;exitY=0.5;exitDx=0;exitDy=0;entryX=0;entryY=0.5;entryDx=0;entryDy=0;entryPerimeter=0;endArrow=none;endFill=0;strokeWidth=1;" parent="1" source="fkppCWhbOw76qJjiSwTg-95" target="fkppCWhbOw76qJjiSwTg-102" edge="1">
          <mxGeometry relative="1" as="geometry" />
        </mxCell>
        <mxCell id="QcgEAhnMN4TtuXN9khBl-11" style="edgeStyle=orthogonalEdgeStyle;rounded=0;orthogonalLoop=1;jettySize=auto;html=1;exitX=0;exitY=0.25;exitDx=0;exitDy=0;entryX=1;entryY=0.5;entryDx=0;entryDy=0;entryPerimeter=0;endArrow=none;endFill=0;" parent="1" source="fkppCWhbOw76qJjiSwTg-95" target="QcgEAhnMN4TtuXN9khBl-10" edge="1">
          <mxGeometry relative="1" as="geometry" />
        </mxCell>
        <mxCell id="gStav0CeeV2WJq8nettM-4" style="edgeStyle=orthogonalEdgeStyle;rounded=0;jumpSize=0;orthogonalLoop=1;jettySize=auto;html=1;exitX=0.75;exitY=1;exitDx=0;exitDy=0;entryX=1;entryY=0.5;entryDx=0;entryDy=0;entryPerimeter=0;startArrow=none;startFill=0;endArrow=none;endFill=0;" edge="1" parent="1" source="fkppCWhbOw76qJjiSwTg-95" target="gStav0CeeV2WJq8nettM-3">
          <mxGeometry relative="1" as="geometry" />
        </mxCell>
        <mxCell id="fkppCWhbOw76qJjiSwTg-99" style="edgeStyle=orthogonalEdgeStyle;rounded=0;orthogonalLoop=1;jettySize=auto;html=1;exitX=0;exitY=0.5;exitDx=0;exitDy=0;exitPerimeter=0;entryX=0.25;entryY=0;entryDx=0;entryDy=0;endArrow=none;endFill=0;strokeWidth=1;" parent="1" source="fkppCWhbOw76qJjiSwTg-97" target="fkppCWhbOw76qJjiSwTg-95" edge="1">
          <mxGeometry relative="1" as="geometry" />
        </mxCell>
        <mxCell id="fkppCWhbOw76qJjiSwTg-97" value="" style="shape=providedRequiredInterface;html=1;verticalLabelPosition=bottom;fillColor=#08D6FF;rotation=-90;" parent="1" vertex="1">
          <mxGeometry x="515" y="260" width="30" height="30" as="geometry" />
        </mxCell>
        <mxCell id="fkppCWhbOw76qJjiSwTg-100" value="Display CSI Page" style="text;html=1;strokeColor=none;fillColor=none;align=center;verticalAlign=middle;whiteSpace=wrap;rounded=0;fontStyle=1" parent="1" vertex="1">
          <mxGeometry x="489" y="305" width="40" height="20" as="geometry" />
        </mxCell>
        <mxCell id="fkppCWhbOw76qJjiSwTg-107" style="edgeStyle=orthogonalEdgeStyle;rounded=0;orthogonalLoop=1;jettySize=auto;html=1;exitX=1;exitY=0.5;exitDx=0;exitDy=0;entryX=0;entryY=0.5;entryDx=0;entryDy=0;endArrow=none;endFill=0;strokeWidth=1;" parent="1" source="fkppCWhbOw76qJjiSwTg-101" target="fkppCWhbOw76qJjiSwTg-106" edge="1">
          <mxGeometry relative="1" as="geometry" />
        </mxCell>
        <mxCell id="fkppCWhbOw76qJjiSwTg-101" value="" style="whiteSpace=wrap;html=1;aspect=fixed;fillColor=#08D6FF;" parent="1" vertex="1">
          <mxGeometry x="750" y="440" width="20" height="20" as="geometry" />
        </mxCell>
        <mxCell id="fkppCWhbOw76qJjiSwTg-105" style="edgeStyle=orthogonalEdgeStyle;rounded=0;orthogonalLoop=1;jettySize=auto;html=1;exitX=1;exitY=0.5;exitDx=0;exitDy=0;exitPerimeter=0;entryX=0;entryY=0.5;entryDx=0;entryDy=0;endArrow=none;endFill=0;strokeWidth=1;" parent="1" source="fkppCWhbOw76qJjiSwTg-102" target="fkppCWhbOw76qJjiSwTg-101" edge="1">
          <mxGeometry relative="1" as="geometry" />
        </mxCell>
        <mxCell id="fkppCWhbOw76qJjiSwTg-102" value="" style="shape=providedRequiredInterface;html=1;verticalLabelPosition=bottom;fillColor=#08D6FF;" parent="1" vertex="1">
          <mxGeometry x="680" y="435" width="30" height="30" as="geometry" />
        </mxCell>
        <mxCell id="fkppCWhbOw76qJjiSwTg-103" value="Comm" style="text;html=1;strokeColor=none;fillColor=none;align=center;verticalAlign=middle;whiteSpace=wrap;rounded=0;fontStyle=1" parent="1" vertex="1">
          <mxGeometry x="675" y="475" width="40" height="20" as="geometry" />
        </mxCell>
        <mxCell id="fkppCWhbOw76qJjiSwTg-110" style="edgeStyle=orthogonalEdgeStyle;rounded=0;orthogonalLoop=1;jettySize=auto;html=1;exitX=1;exitY=0.5;exitDx=0;exitDy=0;entryX=0;entryY=0.5;entryDx=0;entryDy=0;endArrow=none;endFill=0;strokeWidth=1;" parent="1" source="fkppCWhbOw76qJjiSwTg-106" target="fkppCWhbOw76qJjiSwTg-108" edge="1">
          <mxGeometry relative="1" as="geometry" />
        </mxCell>
        <mxCell id="fkppCWhbOw76qJjiSwTg-106" value="" style="whiteSpace=wrap;html=1;aspect=fixed;fillColor=#08D6FF;" parent="1" vertex="1">
          <mxGeometry x="870" y="440" width="20" height="20" as="geometry" />
        </mxCell>
        <mxCell id="fkppCWhbOw76qJjiSwTg-139" style="edgeStyle=orthogonalEdgeStyle;rounded=0;orthogonalLoop=1;jettySize=auto;html=1;exitX=0.5;exitY=0;exitDx=0;exitDy=0;entryX=0;entryY=0.5;entryDx=0;entryDy=0;endArrow=none;endFill=0;strokeWidth=1;" parent="1" source="fkppCWhbOw76qJjiSwTg-108" target="fkppCWhbOw76qJjiSwTg-137" edge="1">
          <mxGeometry relative="1" as="geometry">
            <Array as="points">
              <mxPoint x="970" y="400" />
              <mxPoint x="1040" y="400" />
              <mxPoint x="1040" y="355" />
            </Array>
          </mxGeometry>
        </mxCell>
        <mxCell id="fkppCWhbOw76qJjiSwTg-120" style="edgeStyle=orthogonalEdgeStyle;rounded=0;orthogonalLoop=1;jettySize=auto;html=1;exitX=0;exitY=0.5;exitDx=0;exitDy=0;exitPerimeter=0;entryX=0;entryY=0.5;entryDx=0;entryDy=0;endArrow=none;endFill=0;strokeWidth=1;" parent="1" source="fkppCWhbOw76qJjiSwTg-117" target="fkppCWhbOw76qJjiSwTg-32" edge="1">
          <mxGeometry relative="1" as="geometry" />
        </mxCell>
        <mxCell id="fkppCWhbOw76qJjiSwTg-117" value="" style="shape=providedRequiredInterface;html=1;verticalLabelPosition=bottom;fillColor=#08D6FF;rotation=-180;" parent="1" vertex="1">
          <mxGeometry x="455" y="160" width="30" height="30" as="geometry" />
        </mxCell>
        <mxCell id="fkppCWhbOw76qJjiSwTg-118" value="Login" style="text;html=1;strokeColor=none;fillColor=none;align=center;verticalAlign=middle;whiteSpace=wrap;rounded=0;fontStyle=1" parent="1" vertex="1">
          <mxGeometry x="450" y="190" width="40" height="20" as="geometry" />
        </mxCell>
        <mxCell id="fkppCWhbOw76qJjiSwTg-130" style="edgeStyle=orthogonalEdgeStyle;rounded=0;orthogonalLoop=1;jettySize=auto;html=1;exitX=1;exitY=0.5;exitDx=0;exitDy=0;exitPerimeter=0;entryX=0.5;entryY=1;entryDx=0;entryDy=0;endArrow=none;endFill=0;strokeWidth=1;" parent="1" source="fkppCWhbOw76qJjiSwTg-125" target="fkppCWhbOw76qJjiSwTg-129" edge="1">
          <mxGeometry relative="1" as="geometry">
            <mxPoint x="395" y="530" as="targetPoint" />
            <Array as="points">
              <mxPoint x="395" y="740" />
              <mxPoint x="1118" y="740" />
            </Array>
          </mxGeometry>
        </mxCell>
        <mxCell id="fkppCWhbOw76qJjiSwTg-125" value="" style="shape=providedRequiredInterface;html=1;verticalLabelPosition=bottom;fillColor=#08D6FF;rotation=90;" parent="1" vertex="1">
          <mxGeometry x="380" y="330" width="30" height="30" as="geometry" />
        </mxCell>
        <mxCell id="fkppCWhbOw76qJjiSwTg-127" value="Comm" style="text;html=1;strokeColor=none;fillColor=none;align=center;verticalAlign=middle;whiteSpace=wrap;rounded=0;fontStyle=1" parent="1" vertex="1">
          <mxGeometry x="330" y="335" width="40" height="20" as="geometry" />
        </mxCell>
        <mxCell id="fkppCWhbOw76qJjiSwTg-133" style="edgeStyle=orthogonalEdgeStyle;rounded=0;orthogonalLoop=1;jettySize=auto;html=1;exitX=0.5;exitY=0;exitDx=0;exitDy=0;entryX=0.5;entryY=1;entryDx=0;entryDy=0;endArrow=none;endFill=0;strokeWidth=1;" parent="1" source="fkppCWhbOw76qJjiSwTg-129" target="fkppCWhbOw76qJjiSwTg-122" edge="1">
          <mxGeometry relative="1" as="geometry" />
        </mxCell>
        <mxCell id="fkppCWhbOw76qJjiSwTg-129" value="" style="whiteSpace=wrap;html=1;aspect=fixed;fillColor=#08D6FF;" parent="1" vertex="1">
          <mxGeometry x="1108" y="530" width="20" height="20" as="geometry" />
        </mxCell>
        <mxCell id="fkppCWhbOw76qJjiSwTg-145" style="edgeStyle=orthogonalEdgeStyle;rounded=0;orthogonalLoop=1;jettySize=auto;html=1;exitX=1;exitY=0.5;exitDx=0;exitDy=0;entryX=0.75;entryY=0;entryDx=0;entryDy=0;endArrow=none;endFill=0;strokeWidth=1;" parent="1" source="fkppCWhbOw76qJjiSwTg-140" target="fkppCWhbOw76qJjiSwTg-108" edge="1">
          <mxGeometry relative="1" as="geometry">
            <Array as="points">
              <mxPoint x="1190" y="265" />
              <mxPoint x="1190" y="410" />
              <mxPoint x="1000" y="410" />
            </Array>
          </mxGeometry>
        </mxCell>
        <mxCell id="o57emjJ0l2mKLzwhrUZ1-8" style="edgeStyle=orthogonalEdgeStyle;rounded=0;orthogonalLoop=1;jettySize=auto;html=1;exitX=1;exitY=0.5;exitDx=0;exitDy=0;exitPerimeter=0;entryX=0.5;entryY=0;entryDx=0;entryDy=0;endArrow=none;endFill=0;" parent="1" source="o57emjJ0l2mKLzwhrUZ1-7" target="fkppCWhbOw76qJjiSwTg-32" edge="1">
          <mxGeometry relative="1" as="geometry" />
        </mxCell>
        <mxCell id="o57emjJ0l2mKLzwhrUZ1-9" style="edgeStyle=orthogonalEdgeStyle;rounded=0;orthogonalLoop=1;jettySize=auto;html=1;exitX=0;exitY=0.5;exitDx=0;exitDy=0;exitPerimeter=0;entryX=0.5;entryY=1;entryDx=0;entryDy=0;endArrow=none;endFill=0;" parent="1" source="o57emjJ0l2mKLzwhrUZ1-7" target="o57emjJ0l2mKLzwhrUZ1-4" edge="1">
          <mxGeometry relative="1" as="geometry" />
        </mxCell>
        <mxCell id="o57emjJ0l2mKLzwhrUZ1-7" value="" style="shape=providedRequiredInterface;html=1;verticalLabelPosition=bottom;fillColor=#08D6FF;" parent="1" vertex="1">
          <mxGeometry x="489" y="90" width="30" height="30" as="geometry" />
        </mxCell>
        <mxCell id="o57emjJ0l2mKLzwhrUZ1-10" value="Request form" style="text;html=1;strokeColor=none;fillColor=none;align=center;verticalAlign=middle;whiteSpace=wrap;rounded=0;fontStyle=1" parent="1" vertex="1">
          <mxGeometry x="484" y="120" width="40" height="20" as="geometry" />
        </mxCell>
        <mxCell id="A3ARpKB3fDkbXEU5PbYO-1" value="Component Diagram for CSI system" style="text;html=1;strokeColor=none;fillColor=none;align=center;verticalAlign=middle;whiteSpace=wrap;rounded=0;fontFamily=Times New Roman;fontSize=30;" parent="1" vertex="1">
          <mxGeometry x="895" y="-50" width="300" height="20" as="geometry" />
        </mxCell>
        <mxCell id="QcgEAhnMN4TtuXN9khBl-6" style="edgeStyle=orthogonalEdgeStyle;rounded=0;orthogonalLoop=1;jettySize=auto;html=1;exitX=0;exitY=0.5;exitDx=0;exitDy=0;exitPerimeter=0;entryX=0.5;entryY=1;entryDx=0;entryDy=0;endArrow=none;endFill=0;" parent="1" source="QcgEAhnMN4TtuXN9khBl-1" target="QcgEAhnMN4TtuXN9khBl-4" edge="1">
          <mxGeometry relative="1" as="geometry" />
        </mxCell>
        <mxCell id="QcgEAhnMN4TtuXN9khBl-1" value="" style="shape=providedRequiredInterface;html=1;verticalLabelPosition=bottom;fillColor=#08D6FF;rotation=-180;" parent="1" vertex="1">
          <mxGeometry x="598" y="90" width="30" height="30" as="geometry" />
        </mxCell>
        <mxCell id="QcgEAhnMN4TtuXN9khBl-3" value="Review CSI form" style="text;html=1;strokeColor=none;fillColor=none;align=center;verticalAlign=middle;whiteSpace=wrap;rounded=0;fontStyle=1" parent="1" vertex="1">
          <mxGeometry x="628" y="120" width="52" height="20" as="geometry" />
        </mxCell>
        <mxCell id="QcgEAhnMN4TtuXN9khBl-12" style="edgeStyle=orthogonalEdgeStyle;rounded=0;orthogonalLoop=1;jettySize=auto;html=1;exitX=0;exitY=0.5;exitDx=0;exitDy=0;exitPerimeter=0;entryX=0.5;entryY=0;entryDx=0;entryDy=0;endArrow=none;endFill=0;" parent="1" source="QcgEAhnMN4TtuXN9khBl-10" target="QcgEAhnMN4TtuXN9khBl-8" edge="1">
          <mxGeometry relative="1" as="geometry">
            <Array as="points">
              <mxPoint x="475" y="450" />
              <mxPoint x="498" y="450" />
            </Array>
          </mxGeometry>
        </mxCell>
        <mxCell id="QcgEAhnMN4TtuXN9khBl-10" value="" style="shape=providedRequiredInterface;html=1;verticalLabelPosition=bottom;fillColor=#08D6FF;rotation=-90;" parent="1" vertex="1">
          <mxGeometry x="460" y="400" width="30" height="30" as="geometry" />
        </mxCell>
        <mxCell id="QcgEAhnMN4TtuXN9khBl-13" value="Display CSI Event Page" style="text;html=1;strokeColor=none;fillColor=none;align=center;verticalAlign=middle;whiteSpace=wrap;rounded=0;fontStyle=1" parent="1" vertex="1">
          <mxGeometry x="415" y="420" width="40" height="20" as="geometry" />
        </mxCell>
        <mxCell id="VlwEZn-e34Lsyked_DZE-4" style="edgeStyle=orthogonalEdgeStyle;rounded=0;orthogonalLoop=1;jettySize=auto;html=1;exitX=1;exitY=0.5;exitDx=0;exitDy=0;entryX=0;entryY=0.5;entryDx=0;entryDy=0;entryPerimeter=0;endArrow=none;endFill=0;" parent="1" source="VlwEZn-e34Lsyked_DZE-1" target="VlwEZn-e34Lsyked_DZE-3" edge="1">
          <mxGeometry relative="1" as="geometry">
            <Array as="points">
              <mxPoint x="430" y="120" />
              <mxPoint x="430" y="160" />
              <mxPoint x="410" y="160" />
            </Array>
          </mxGeometry>
        </mxCell>
        <mxCell id="VlwEZn-e34Lsyked_DZE-8" style="edgeStyle=orthogonalEdgeStyle;rounded=0;orthogonalLoop=1;jettySize=auto;html=1;exitX=0.5;exitY=0;exitDx=0;exitDy=0;entryX=0;entryY=0.5;entryDx=0;entryDy=0;entryPerimeter=0;endArrow=none;endFill=0;" parent="1" source="VlwEZn-e34Lsyked_DZE-1" target="VlwEZn-e34Lsyked_DZE-7" edge="1">
          <mxGeometry relative="1" as="geometry" />
        </mxCell>
        <mxCell id="VlwEZn-e34Lsyked_DZE-3" value="" style="shape=providedRequiredInterface;html=1;verticalLabelPosition=bottom;fillColor=#08D6FF;rotation=90;" parent="1" vertex="1">
          <mxGeometry x="395" y="170" width="30" height="30" as="geometry" />
        </mxCell>
        <mxCell id="VlwEZn-e34Lsyked_DZE-6" value="Register" style="text;html=1;strokeColor=none;fillColor=none;align=center;verticalAlign=middle;whiteSpace=wrap;rounded=0;fontStyle=1" parent="1" vertex="1">
          <mxGeometry x="365" y="200" width="40" height="20" as="geometry" />
        </mxCell>
        <mxCell id="VlwEZn-e34Lsyked_DZE-9" style="edgeStyle=orthogonalEdgeStyle;rounded=0;orthogonalLoop=1;jettySize=auto;html=1;exitX=1;exitY=0.5;exitDx=0;exitDy=0;exitPerimeter=0;entryX=1;entryY=1;entryDx=0;entryDy=0;endArrow=none;endFill=0;" parent="1" source="VlwEZn-e34Lsyked_DZE-7" target="fkppCWhbOw76qJjiSwTg-129" edge="1">
          <mxGeometry relative="1" as="geometry">
            <Array as="points">
              <mxPoint x="350" y="-100" />
              <mxPoint x="800" y="-100" />
              <mxPoint x="800" y="20" />
              <mxPoint x="1240" y="20" />
              <mxPoint x="1240" y="580" />
              <mxPoint x="1128" y="580" />
            </Array>
          </mxGeometry>
        </mxCell>
        <mxCell id="VlwEZn-e34Lsyked_DZE-7" value="" style="shape=providedRequiredInterface;html=1;verticalLabelPosition=bottom;fillColor=#08D6FF;rotation=-91;" parent="1" vertex="1">
          <mxGeometry x="335" y="20" width="30" height="30" as="geometry" />
        </mxCell>
        <mxCell id="VlwEZn-e34Lsyked_DZE-11" value="Comm" style="text;html=1;strokeColor=none;fillColor=none;align=center;verticalAlign=middle;whiteSpace=wrap;rounded=0;fontStyle=1" parent="1" vertex="1">
          <mxGeometry x="295" y="25" width="40" height="20" as="geometry" />
        </mxCell>
        <mxCell id="gStav0CeeV2WJq8nettM-5" style="edgeStyle=orthogonalEdgeStyle;rounded=0;jumpSize=0;orthogonalLoop=1;jettySize=auto;html=1;exitX=0;exitY=0.5;exitDx=0;exitDy=0;exitPerimeter=0;entryX=0.5;entryY=0;entryDx=0;entryDy=0;startArrow=none;startFill=0;endArrow=none;endFill=0;" edge="1" parent="1" source="gStav0CeeV2WJq8nettM-3" target="gStav0CeeV2WJq8nettM-1">
          <mxGeometry relative="1" as="geometry">
            <Array as="points">
              <mxPoint x="623" y="520" />
              <mxPoint x="668" y="520" />
            </Array>
          </mxGeometry>
        </mxCell>
        <mxCell id="gStav0CeeV2WJq8nettM-3" value="" style="shape=providedRequiredInterface;html=1;verticalLabelPosition=bottom;fillColor=#08D6FF;rotation=-90;" vertex="1" parent="1">
          <mxGeometry x="608" y="475" width="30" height="30" as="geometry" />
        </mxCell>
        <mxCell id="gStav0CeeV2WJq8nettM-8" value="" style="group" vertex="1" connectable="0" parent="1">
          <mxGeometry x="1058" y="100" width="120" height="60" as="geometry" />
        </mxCell>
        <mxCell id="gStav0CeeV2WJq8nettM-6" value="&amp;lt;&amp;lt;Component&amp;gt;&amp;gt;&lt;br&gt;Topic Table" style="rounded=0;whiteSpace=wrap;html=1;fillColor=#FFFFFF;" vertex="1" parent="gStav0CeeV2WJq8nettM-8">
          <mxGeometry width="120" height="60" as="geometry" />
        </mxCell>
        <mxCell id="gStav0CeeV2WJq8nettM-7" value="" style="shape=module;align=left;spacingLeft=20;align=center;verticalAlign=top;jettyWidth=8;jettyHeight=4;fillColor=#FFFFFF;" vertex="1" parent="gStav0CeeV2WJq8nettM-8">
          <mxGeometry x="98" width="22" height="20" as="geometry" />
        </mxCell>
        <mxCell id="gStav0CeeV2WJq8nettM-9" value="" style="group" vertex="1" connectable="0" parent="1">
          <mxGeometry x="1058" y="235" width="120" height="60" as="geometry" />
        </mxCell>
        <mxCell id="fkppCWhbOw76qJjiSwTg-140" value="&amp;lt;&amp;lt;Component&amp;gt;&amp;gt;&lt;br&gt;CSI Table" style="rounded=0;whiteSpace=wrap;html=1;fillColor=#FFFFFF;" parent="gStav0CeeV2WJq8nettM-9" vertex="1">
          <mxGeometry width="120" height="60" as="geometry" />
        </mxCell>
        <mxCell id="fkppCWhbOw76qJjiSwTg-141" value="" style="shape=module;align=left;spacingLeft=20;align=center;verticalAlign=top;jettyWidth=8;jettyHeight=4;fillColor=#FFFFFF;" parent="gStav0CeeV2WJq8nettM-9" vertex="1">
          <mxGeometry x="98" width="22" height="20" as="geometry" />
        </mxCell>
        <mxCell id="gStav0CeeV2WJq8nettM-10" value="" style="group" vertex="1" connectable="0" parent="1">
          <mxGeometry x="1058" y="325" width="120" height="60" as="geometry" />
        </mxCell>
        <mxCell id="fkppCWhbOw76qJjiSwTg-137" value="&amp;lt;&amp;lt;Component&amp;gt;&amp;gt;&lt;br&gt;Event Table" style="rounded=0;whiteSpace=wrap;html=1;fillColor=#FFFFFF;" parent="gStav0CeeV2WJq8nettM-10" vertex="1">
          <mxGeometry width="120" height="60" as="geometry" />
        </mxCell>
        <mxCell id="fkppCWhbOw76qJjiSwTg-138" value="" style="shape=module;align=left;spacingLeft=20;align=center;verticalAlign=top;jettyWidth=8;jettyHeight=4;fillColor=#FFFFFF;" parent="gStav0CeeV2WJq8nettM-10" vertex="1">
          <mxGeometry x="98" width="22" height="20" as="geometry" />
        </mxCell>
        <mxCell id="gStav0CeeV2WJq8nettM-11" value="" style="group" vertex="1" connectable="0" parent="1">
          <mxGeometry x="1058" y="420" width="120" height="60" as="geometry" />
        </mxCell>
        <mxCell id="fkppCWhbOw76qJjiSwTg-122" value="&amp;lt;&amp;lt;Component&amp;gt;&amp;gt;&lt;br&gt;Person Table" style="rounded=0;whiteSpace=wrap;html=1;fillColor=#FFFFFF;" parent="gStav0CeeV2WJq8nettM-11" vertex="1">
          <mxGeometry width="120" height="60" as="geometry" />
        </mxCell>
        <mxCell id="fkppCWhbOw76qJjiSwTg-123" value="" style="shape=module;align=left;spacingLeft=20;align=center;verticalAlign=top;jettyWidth=8;jettyHeight=4;fillColor=#FFFFFF;" parent="gStav0CeeV2WJq8nettM-11" vertex="1">
          <mxGeometry x="98" width="22" height="20" as="geometry" />
        </mxCell>
        <mxCell id="gStav0CeeV2WJq8nettM-12" value="" style="group" vertex="1" connectable="0" parent="1">
          <mxGeometry x="910" y="420" width="120" height="60" as="geometry" />
        </mxCell>
        <mxCell id="fkppCWhbOw76qJjiSwTg-108" value="&amp;lt;&amp;lt;Component&amp;gt;&amp;gt;&lt;br&gt;Event_CSI Table" style="rounded=0;whiteSpace=wrap;html=1;fillColor=#FFFFFF;" parent="gStav0CeeV2WJq8nettM-12" vertex="1">
          <mxGeometry width="120" height="60" as="geometry" />
        </mxCell>
        <mxCell id="fkppCWhbOw76qJjiSwTg-109" value="" style="shape=module;align=left;spacingLeft=20;align=center;verticalAlign=top;jettyWidth=8;jettyHeight=4;fillColor=#FFFFFF;" parent="gStav0CeeV2WJq8nettM-12" vertex="1">
          <mxGeometry x="98" width="22" height="20" as="geometry" />
        </mxCell>
        <mxCell id="gStav0CeeV2WJq8nettM-13" value="" style="group" vertex="1" connectable="0" parent="1">
          <mxGeometry x="608" y="540" width="120" height="60" as="geometry" />
        </mxCell>
        <mxCell id="gStav0CeeV2WJq8nettM-1" value="&amp;lt;&amp;lt;Component&amp;gt;&amp;gt;&lt;br&gt;CSI Forum Page" style="rounded=0;whiteSpace=wrap;html=1;fillColor=#FFFFFF;" vertex="1" parent="gStav0CeeV2WJq8nettM-13">
          <mxGeometry width="120" height="60" as="geometry" />
        </mxCell>
        <mxCell id="gStav0CeeV2WJq8nettM-2" value="" style="shape=module;align=left;spacingLeft=20;align=center;verticalAlign=top;jettyWidth=8;jettyHeight=4;fillColor=#FFFFFF;" vertex="1" parent="gStav0CeeV2WJq8nettM-13">
          <mxGeometry x="98" width="22" height="20" as="geometry" />
        </mxCell>
        <mxCell id="gStav0CeeV2WJq8nettM-14" value="" style="group" vertex="1" connectable="0" parent="1">
          <mxGeometry x="438" y="465" width="120" height="60" as="geometry" />
        </mxCell>
        <mxCell id="QcgEAhnMN4TtuXN9khBl-8" value="&amp;lt;&amp;lt;Component&amp;gt;&amp;gt;&lt;br&gt;CSI Event Page" style="rounded=0;whiteSpace=wrap;html=1;fillColor=#FFFFFF;" parent="gStav0CeeV2WJq8nettM-14" vertex="1">
          <mxGeometry width="120" height="60" as="geometry" />
        </mxCell>
        <mxCell id="QcgEAhnMN4TtuXN9khBl-9" value="" style="shape=module;align=left;spacingLeft=20;align=center;verticalAlign=top;jettyWidth=8;jettyHeight=4;fillColor=#FFFFFF;" parent="gStav0CeeV2WJq8nettM-14" vertex="1">
          <mxGeometry x="98" width="22" height="20" as="geometry" />
        </mxCell>
        <mxCell id="gStav0CeeV2WJq8nettM-15" value="" style="group" vertex="1" connectable="0" parent="1">
          <mxGeometry x="500" y="380" width="120" height="60" as="geometry" />
        </mxCell>
        <mxCell id="fkppCWhbOw76qJjiSwTg-95" value="&amp;lt;&amp;lt;Component&amp;gt;&amp;gt;&lt;br&gt;CSI Profile Page" style="rounded=0;whiteSpace=wrap;html=1;fillColor=#FFFFFF;" parent="gStav0CeeV2WJq8nettM-15" vertex="1">
          <mxGeometry width="120" height="60" as="geometry" />
        </mxCell>
        <mxCell id="QcgEAhnMN4TtuXN9khBl-7" value="" style="shape=module;align=left;spacingLeft=20;align=center;verticalAlign=top;jettyWidth=8;jettyHeight=4;fillColor=#FFFFFF;" parent="gStav0CeeV2WJq8nettM-15" vertex="1">
          <mxGeometry x="98" width="22" height="20" as="geometry" />
        </mxCell>
        <mxCell id="gStav0CeeV2WJq8nettM-16" value="" style="group" vertex="1" connectable="0" parent="1">
          <mxGeometry x="500" y="145" width="120" height="60" as="geometry" />
        </mxCell>
        <mxCell id="fkppCWhbOw76qJjiSwTg-32" value="&amp;lt;&amp;lt;Component&amp;gt;&amp;gt;&lt;br&gt;Home Page" style="rounded=0;whiteSpace=wrap;html=1;fillColor=#FFFFFF;" parent="gStav0CeeV2WJq8nettM-16" vertex="1">
          <mxGeometry width="120" height="60" as="geometry" />
        </mxCell>
        <mxCell id="fkppCWhbOw76qJjiSwTg-77" value="" style="shape=module;align=left;spacingLeft=20;align=center;verticalAlign=top;jettyWidth=8;jettyHeight=4;fillColor=#FFFFFF;" parent="gStav0CeeV2WJq8nettM-16" vertex="1">
          <mxGeometry x="98" width="22" height="20" as="geometry" />
        </mxCell>
        <mxCell id="gStav0CeeV2WJq8nettM-17" value="" style="group" vertex="1" connectable="0" parent="1">
          <mxGeometry x="365" y="230" width="120" height="60" as="geometry" />
        </mxCell>
        <mxCell id="fkppCWhbOw76qJjiSwTg-113" value="&amp;lt;&amp;lt;Component&amp;gt;&amp;gt;&lt;br&gt;Login Page" style="rounded=0;whiteSpace=wrap;html=1;fillColor=#FFFFFF;" parent="gStav0CeeV2WJq8nettM-17" vertex="1">
          <mxGeometry width="120" height="60" as="geometry" />
        </mxCell>
        <mxCell id="fkppCWhbOw76qJjiSwTg-114" value="" style="shape=module;align=left;spacingLeft=20;align=center;verticalAlign=top;jettyWidth=8;jettyHeight=4;fillColor=#FFFFFF;" parent="gStav0CeeV2WJq8nettM-17" vertex="1">
          <mxGeometry x="98" width="22" height="20" as="geometry" />
        </mxCell>
        <mxCell id="gStav0CeeV2WJq8nettM-20" value="" style="group" vertex="1" connectable="0" parent="1">
          <mxGeometry x="598" y="20" width="120" height="60" as="geometry" />
        </mxCell>
        <mxCell id="gStav0CeeV2WJq8nettM-18" value="" style="group" vertex="1" connectable="0" parent="gStav0CeeV2WJq8nettM-20">
          <mxGeometry width="120" height="60" as="geometry" />
        </mxCell>
        <mxCell id="QcgEAhnMN4TtuXN9khBl-4" value="&amp;lt;&amp;lt;Component&amp;gt;&amp;gt;&lt;br&gt;CSI Review Form" style="rounded=0;whiteSpace=wrap;html=1;fillColor=#FFFFFF;" parent="gStav0CeeV2WJq8nettM-18" vertex="1">
          <mxGeometry width="120" height="60" as="geometry" />
        </mxCell>
        <mxCell id="QcgEAhnMN4TtuXN9khBl-5" value="" style="shape=module;align=left;spacingLeft=20;align=center;verticalAlign=top;jettyWidth=8;jettyHeight=4;fillColor=#FFFFFF;" parent="gStav0CeeV2WJq8nettM-18" vertex="1">
          <mxGeometry x="98" width="22" height="20" as="geometry" />
        </mxCell>
        <mxCell id="gStav0CeeV2WJq8nettM-21" value="" style="group" vertex="1" connectable="0" parent="1">
          <mxGeometry x="395" y="20" width="120" height="60" as="geometry" />
        </mxCell>
        <mxCell id="o57emjJ0l2mKLzwhrUZ1-4" value="&amp;lt;&amp;lt;Component&amp;gt;&amp;gt;&lt;br&gt;CSI Request Form" style="rounded=0;whiteSpace=wrap;html=1;fillColor=#FFFFFF;" parent="gStav0CeeV2WJq8nettM-21" vertex="1">
          <mxGeometry width="120" height="60" as="geometry" />
        </mxCell>
        <mxCell id="o57emjJ0l2mKLzwhrUZ1-5" value="" style="shape=module;align=left;spacingLeft=20;align=center;verticalAlign=top;jettyWidth=8;jettyHeight=4;fillColor=#FFFFFF;" parent="gStav0CeeV2WJq8nettM-21" vertex="1">
          <mxGeometry x="98" width="22" height="20" as="geometry" />
        </mxCell>
        <mxCell id="gStav0CeeV2WJq8nettM-22" value="" style="group" vertex="1" connectable="0" parent="1">
          <mxGeometry x="290" y="90" width="120" height="60" as="geometry" />
        </mxCell>
        <mxCell id="VlwEZn-e34Lsyked_DZE-1" value="&amp;lt;&amp;lt;Component&amp;gt;&amp;gt;&lt;br&gt;Registration Page" style="rounded=0;whiteSpace=wrap;html=1;fillColor=#FFFFFF;" parent="gStav0CeeV2WJq8nettM-22" vertex="1">
          <mxGeometry width="120" height="60" as="geometry" />
        </mxCell>
        <mxCell id="VlwEZn-e34Lsyked_DZE-2" value="" style="shape=module;align=left;spacingLeft=20;align=center;verticalAlign=top;jettyWidth=8;jettyHeight=4;fillColor=#FFFFFF;" parent="gStav0CeeV2WJq8nettM-22" vertex="1">
          <mxGeometry x="98" width="22" height="20" as="geometry" />
        </mxCell>
        <mxCell id="gStav0CeeV2WJq8nettM-23" value="" style="group" vertex="1" connectable="0" parent="1">
          <mxGeometry x="900" y="100" width="120" height="60" as="geometry" />
        </mxCell>
        <mxCell id="gStav0CeeV2WJq8nettM-24" value="&amp;lt;&amp;lt;Component&amp;gt;&amp;gt;&lt;br&gt;Notification Table" style="rounded=0;whiteSpace=wrap;html=1;fillColor=#FFFFFF;" vertex="1" parent="gStav0CeeV2WJq8nettM-23">
          <mxGeometry width="120" height="60" as="geometry" />
        </mxCell>
        <mxCell id="gStav0CeeV2WJq8nettM-25" value="" style="shape=module;align=left;spacingLeft=20;align=center;verticalAlign=top;jettyWidth=8;jettyHeight=4;fillColor=#FFFFFF;" vertex="1" parent="gStav0CeeV2WJq8nettM-23">
          <mxGeometry x="98" width="22" height="20" as="geometry" />
        </mxCell>
        <mxCell id="gStav0CeeV2WJq8nettM-27" style="edgeStyle=orthogonalEdgeStyle;rounded=0;jumpSize=0;orthogonalLoop=1;jettySize=auto;html=1;exitX=1;exitY=0.5;exitDx=0;exitDy=0;entryX=0;entryY=0.5;entryDx=0;entryDy=0;startArrow=none;startFill=0;endArrow=none;endFill=0;" edge="1" parent="1" source="gStav0CeeV2WJq8nettM-24" target="gStav0CeeV2WJq8nettM-6">
          <mxGeometry relative="1" as="geometry" />
        </mxCell>
        <mxCell id="gStav0CeeV2WJq8nettM-28" style="edgeStyle=orthogonalEdgeStyle;rounded=0;jumpSize=0;orthogonalLoop=1;jettySize=auto;html=1;exitX=0.75;exitY=1;exitDx=0;exitDy=0;entryX=0.75;entryY=0;entryDx=0;entryDy=0;startArrow=none;startFill=0;endArrow=none;endFill=0;" edge="1" parent="1" source="gStav0CeeV2WJq8nettM-6" target="fkppCWhbOw76qJjiSwTg-140">
          <mxGeometry relative="1" as="geometry" />
        </mxCell>
        <mxCell id="gStav0CeeV2WJq8nettM-29" style="edgeStyle=orthogonalEdgeStyle;rounded=0;jumpSize=0;orthogonalLoop=1;jettySize=auto;html=1;exitX=0.5;exitY=0;exitDx=0;exitDy=0;entryX=1;entryY=0.5;entryDx=0;entryDy=0;startArrow=none;startFill=0;endArrow=none;endFill=0;" edge="1" parent="1" source="gStav0CeeV2WJq8nettM-24" target="fkppCWhbOw76qJjiSwTg-122">
          <mxGeometry relative="1" as="geometry">
            <Array as="points">
              <mxPoint x="960" y="90" />
              <mxPoint x="1200" y="90" />
              <mxPoint x="1200" y="450" />
            </Array>
          </mxGeometry>
        </mxCell>
      </root>
    </mxGraphModel>
  </diagram>
</mxfile>
